<svg width="53" height="53" viewBox="0 0 53 53" fill="none" xmlns="http://www.w3.org/2000/svg">
<g clip-path="url(#clip0)">
<path d="M28.0847 43.3249C29.0624 42.4426 31.1598 40.4265 33.2694 37.6065C37.0679 32.529 39.0755 27.2432 39.0755 22.3202C39.0755 17.3975 37.0679 12.1117 33.2694 7.03381C30.4425 3.25549 27.6367 0.919106 27.5186 0.821655L26.5251 0L25.5316 0.821655C25.4135 0.919106 22.6077 3.25549 19.7808 7.03381C15.9822 12.1117 13.9746 17.3975 13.9746 22.3202C13.9746 27.2432 15.9822 32.529 19.7808 37.6065C21.8907 40.4265 23.9881 42.4426 24.9659 43.3249V49.8812H17.3773V53H35.6733V49.8812H28.0847V43.3249ZM17.0934 22.3202C17.0934 13.9212 23.9218 6.60923 26.5267 4.12607C29.1332 6.60519 35.9571 13.8998 35.9571 22.3202C35.9571 29.3519 31.1711 35.6207 28.0847 38.9332V27.739H24.9659V38.9397C21.879 35.634 17.0934 29.3726 17.0934 22.3202Z" fill="white"/>
</g>
<defs>
<clipPath id="clip0">
<rect width="53" height="53" fill="white"/>
</clipPath>
</defs>
</svg>
